<?xml version="1.0" encoding="UTF-8"?>
<svg width="59px" height="59px" viewBox="0 0 59 59" version="1.1" xmlns="http://www.w3.org/2000/svg" xmlns:xlink="http://www.w3.org/1999/xlink">
    <title>编组 11</title>
    <defs>
        <radialGradient cx="62.5804448%" cy="70.2558005%" fx="62.5804448%" fy="70.2558005%" r="78.289635%" gradientTransform="translate(0.6258, 0.7026), scale(0.9876, 1), rotate(-161.8239), translate(-0.6258, -0.7026)" id="radialGradient-1">
            <stop stop-color="#FDC13D" offset="0%"></stop>
            <stop stop-color="#FFE6A9" offset="100%"></stop>
        </radialGradient>
        <linearGradient x1="50%" y1="0%" x2="50%" y2="100%" id="linearGradient-2">
            <stop stop-color="#FC680E" offset="0%"></stop>
            <stop stop-color="#F83706" offset="100%"></stop>
        </linearGradient>
    </defs>
    <g id="设计" stroke="none" stroke-width="1" fill="none" fill-rule="evenodd">
        <g id="图标修改" transform="translate(-225, -385)">
            <g id="编组-11" transform="translate(225, 385)">
                <rect id="矩形备份-10" fill="#FFF0B9" opacity="0" x="0" y="0" width="59" height="59" rx="12"></rect>
                <g id="编组-3" transform="translate(12, 8)">
                    <path d="M12.8101567,28.2163605 C13.2306373,34.0551299 11.7704137,38.4002794 8.42948613,41.2518089" id="路径-4" stroke="#000000" stroke-width="2.96420184"></path>
                    <path d="M25.2622379,28.1953679 C25.1910666,34.7259232 23.4988502,39.4126925 20.1855887,42.2556758" id="路径-4备份" stroke="#000000" stroke-width="2.96420184" transform="translate(22.7239, 35.2255) rotate(-32) translate(-22.7239, -35.2255)"></path>
                    <path d="M7.84792507,39.6829526 L13.9345705,39.662977 C15.0239908,39.6594017 15.9100389,40.539653 15.9136143,41.6290734 C15.9136285,41.6334121 15.9136284,41.6377509 15.913614,41.6420896 L15.9135332,41.6664542 C15.9099337,42.7517178 15.0310273,43.6305936 13.9457636,43.6341553 L7.85911825,43.6541308 C6.76969787,43.6577061 5.88364977,42.7774548 5.88007444,41.6880344 C5.88006021,41.6836957 5.88006028,41.679357 5.88007467,41.6750183 L5.88015548,41.6506536 C5.88375498,40.5653901 6.7626614,39.6865143 7.84792507,39.6829526 Z" id="矩形" fill="#FFFFFF" transform="translate(10.8968, 41.6586) rotate(16) translate(-10.8968, -41.6586)"></path>
                    <rect id="矩形备份-5" fill="#FFFFFF" x="21.9885412" y="40.5518849" width="10.0429815" height="3.96748132" rx="1.97425967"></rect>
                    <path d="M20.0468427,1.00826228 L29.122864,5.32495695 C30.4826323,5.97168355 31.4728104,7.20373825 31.8118536,8.67080153 L34.0307101,18.2719478 C34.3723515,19.7502541 34.0150747,21.3035472 33.0618797,22.484025 L26.8162967,30.2188237 C25.8792771,31.3792692 24.4677488,32.0537485 22.9762262,32.0537485 L12.8776366,32.0537485 C11.3861141,32.0537485 9.97458578,31.3792692 9.03756613,30.2188237 L2.79198315,22.484025 C1.83878811,21.3035472 1.48151129,19.7502541 1.82315275,18.2719478 L4.04200926,8.67080153 C4.38105242,7.20373825 5.37123057,5.97168355 6.73099881,5.32495695 L15.8070201,1.00826228 C17.1483051,0.370326594 18.7055577,0.370326594 20.0468427,1.00826228 Z" id="多边形" fill="url(#radialGradient-1)"></path>
                    <path d="M18.6925829,15.3988458 C18.949864,15.3988458 19.1957057,15.3492534 19.4212923,15.2589946 C20.1563291,14.964901 20.6763235,14.2390617 20.6763235,13.3902495 C20.6763235,12.2809324 19.7881726,11.3816532 18.6925829,11.3816532" id="椭圆形" stroke="#000000" stroke-width="1.72818031" stroke-linecap="round" transform="translate(19.6845, 13.3902) rotate(-270) translate(-19.6845, -13.3902)"></path>
                    <path d="M25.7226699,15.3988458 C25.9799511,15.3988458 26.2257927,15.3492534 26.4513793,15.2589946 C27.1864162,14.964901 27.7064106,14.2390617 27.7064106,13.3902495 C27.7064106,12.2809324 26.8182596,11.3816532 25.7226699,11.3816532" id="椭圆形备份-4" stroke="#000000" stroke-width="1.72818031" stroke-linecap="round" transform="translate(26.7145, 13.3902) rotate(-270) translate(-26.7145, -13.3902)"></path>
                    <path d="M23.5617508,20.2840449 L23.5005758,20.4098071 C22.9780278,21.4307161 21.8800315,22.3253643 20.1962055,22.6648272 C16.2672781,23.4569074 12.8101567,22.6648272 12.8101567,22.6648272 C12.8101567,22.6648272 15.8931338,22.344157 16.2672781,19.3605656 C16.6414223,16.3769743 20.2280906,15.2809881 22.5463168,16.6694898 C22.8623844,16.8587985 23.1216146,17.093208 23.3236731,17.3589086 C23.5407529,16.9242687 23.8849936,16.5432053 24.3548257,16.2617993 C26.6730519,14.8732976 30.2597202,15.9692838 30.6338644,18.9528752 C31.0080087,21.9364665 34.0909858,22.2571368 34.0909858,22.2571368 C34.0909858,22.2571368 30.6338644,23.0492169 26.704937,22.2571368 C25.2616576,21.9661685 24.2487836,21.2673091 23.6597777,20.4306683 L23.5617508,20.2840449 Z" id="形状结合备份" fill="url(#linearGradient-2)" transform="translate(23.4506, 19.3415) rotate(-360) translate(-23.4506, -19.3415)"></path>
                    <path d="M24.7059439,1.72911774 C18.9609399,8.25704214 10.7256252,11.7137646 0,12.099285" id="路径-5" stroke="#000000" stroke-width="2.71718502" stroke-linecap="round"></path>
                </g>
            </g>
        </g>
    </g>
</svg>