<?xml version="1.0" encoding="UTF-8"?>
<svg width="59px" height="59px" viewBox="0 0 59 59" version="1.1" xmlns="http://www.w3.org/2000/svg" xmlns:xlink="http://www.w3.org/1999/xlink">
    <title>编组 13</title>
    <defs>
        <radialGradient cx="25.0420319%" cy="70.3698487%" fx="25.0420319%" fy="70.3698487%" r="111.57961%" gradientTransform="translate(0.2504, 0.7037), scale(0.6789, 1), rotate(-22.0878), translate(-0.2504, -0.7037)" id="radialGradient-1">
            <stop stop-color="#8EDB4E" offset="0%"></stop>
            <stop stop-color="#B7F193" offset="100%"></stop>
        </radialGradient>
        <linearGradient x1="50%" y1="0%" x2="50%" y2="100%" id="linearGradient-2">
            <stop stop-color="#FFE482" offset="0%"></stop>
            <stop stop-color="#FFC54B" offset="100%"></stop>
        </linearGradient>
        <linearGradient x1="50%" y1="0%" x2="50%" y2="100%" id="linearGradient-3">
            <stop stop-color="#FFE482" offset="0%"></stop>
            <stop stop-color="#FFC54B" offset="100%"></stop>
        </linearGradient>
    </defs>
    <g id="设计" stroke="none" stroke-width="1" fill="none" fill-rule="evenodd">
        <g id="图标修改" transform="translate(-294, -385)">
            <g id="编组-13" transform="translate(294, 385)">
                <rect id="矩形备份-11" fill="#C8F4C9" opacity="0" x="0" y="0" width="59" height="59" rx="12"></rect>
                <g id="编组-4" transform="translate(9, 10)">
                    <path d="M17.5271292,23.9730432 C17.9807548,30.2532542 16.405427,34.9269197 12.8011459,37.9940398" id="路径-4" stroke="#000000" stroke-width="3.20328318"></path>
                    <path d="M30.948291,23.9477787 C30.4788118,29.0722016 29.8147548,32.5612947 28.9561198,34.4150579 C28.0869906,36.2914778 26.9337551,37.8452882 25.4964134,39.0764891" id="路径-4备份" stroke="#000000" stroke-width="3.20328318" transform="translate(28.2224, 31.5121) rotate(-32) translate(-28.2224, -31.5121)"></path>
                    <path d="M12.1768757,36.3086856 L18.7465603,36.2819808 C19.9167604,36.2772241 20.8692512,37.2220027 20.8740079,38.3922029 C20.8740314,38.3979825 20.8740312,38.4037622 20.8740074,38.4095419 L20.8739244,38.4296963 C20.8690998,39.6011713 19.920594,40.5496262 18.7491188,40.5543881 L12.1794342,40.5810929 C11.009234,40.5858496 10.0567433,39.641071 10.0519866,38.4708708 C10.0519631,38.4650912 10.0519632,38.4593115 10.051987,38.4535318 L10.05207,38.4333774 C10.0568947,37.2619024 11.0054004,36.3134475 12.1768757,36.3086856 Z" id="矩形" fill="#FFFFFF" transform="translate(15.463, 38.4315) rotate(16) translate(-15.463, -38.4315)"></path>
                    <rect id="矩形备份-5" fill="#FFFFFF" x="27.4290133" y="37.2411979" width="10.8346343" height="4.26744371" rx="2.13349601"></rect>
                    <path d="M30.6550388,0 C32.3504497,0 33.7248518,1.36797816 33.7248518,3.05546474 C33.7248518,3.30306927 33.6952614,3.5437949 33.6394084,3.77432948 C38.4910461,5.34520323 42,9.90148341 42,15.2773237 C42,21.953901 36.5875647,27.3663364 29.9109873,27.3663364 L13.7810327,27.3663364 C7.10445537,27.3663364 1.69202004,21.953901 1.69202004,15.2773237 C1.69202004,8.60074636 7.10445537,3.18831103 13.7810327,3.18831103 L15.30902,3.188 L15.3059735,3.05546474 C15.3059735,1.42824554 16.5839571,0.098120262 18.1954117,0.00518684838 L18.3757866,0 C20.0711975,0 21.4455996,1.36797816 21.4455996,3.05546474 C21.4455996,3.10024441 21.4446318,3.14479909 21.4427158,3.18910919 L21.44902,3.188 L21.4455996,3.05546474 C21.4455996,1.42824554 22.7235832,0.098120262 24.3350378,0.00518684838 L24.5154127,0 C26.2108236,0 27.5852257,1.36797816 27.5852257,3.05546474 C27.5852257,3.10024441 27.5842579,3.14479909 27.5823419,3.18910919 L27.58902,3.188 L27.5852257,3.05546474 C27.5852257,1.42824554 28.8632093,0.098120262 30.4746639,0.00518684838 Z" id="形状结合" fill="url(#radialGradient-1)"></path>
                    <path d="M26.12188,20.023553 C26.398613,20.023553 26.6630415,19.9700514 26.9056836,19.8726778 C27.6962932,19.5554019 28.2556018,18.7723473 28.2556018,17.8566261 C28.2556018,16.6598655 27.300302,15.6896993 26.12188,15.6896993" id="椭圆形备份-4" stroke="#000000" stroke-width="1.86756881" stroke-linecap="round" transform="translate(27.1887, 17.8566) rotate(-270) translate(-27.1887, -17.8566)"></path>
                    <rect id="矩形" fill="url(#linearGradient-2)" x="15.3059735" y="7.97077758" width="23.7576836" height="1.32846293" rx="0.664231465"></rect>
                    <path d="M32.5430354,12.8163446 L30.5311254,13.8691245 C30.2698769,14.005829 29.9472722,13.9048661 29.8105677,13.6436176 C29.7562282,13.5397725 29.7375707,13.4209315 29.7574737,13.3054307 L30.1404948,11.0826839 C30.1704345,10.9089381 30.1126656,10.7316143 29.9861271,10.6088463 L28.3654674,9.0364772 C28.153845,8.83116057 28.1487333,8.49316477 28.3540499,8.28154245 C28.4361908,8.19687879 28.5440589,8.14180332 28.6608063,8.12491822 L30.9049156,7.80035419 C31.0785991,7.77523447 31.2288461,7.66636341 31.3068051,7.50913954 L32.3122517,5.48140434 C32.4432361,5.21724148 32.7635662,5.109279 33.0277291,5.24026338 C33.1323103,5.29211969 33.2170137,5.37682308 33.26887,5.48140434 L34.2743166,7.50913954 C34.3522756,7.66636341 34.5025227,7.77523447 34.6762061,7.80035419 L36.9203154,8.12491822 C37.2121332,8.16712363 37.414484,8.43790295 37.3722786,8.72972075 C37.3553935,8.84646818 37.300318,8.95433626 37.2156544,9.0364772 L35.5949946,10.6088463 C35.4684562,10.7316143 35.4106873,10.9089381 35.4406269,11.0826839 L35.8236481,13.3054307 C35.873719,13.5960022 35.6787548,13.8721475 35.3881832,13.9222185 C35.2726823,13.9421214 35.1538414,13.9234639 35.0499963,13.8691245 L33.0380863,12.8163446 C32.8830414,12.7352136 32.6980803,12.7352136 32.5430354,12.8163446 Z" id="星形备份" stroke="url(#linearGradient-3)" stroke-width="0.800820794" fill="#000000"></path>
                    <path d="M21.5984846,12.8163446 L19.5865746,13.8691245 C19.325326,14.005829 19.0027213,13.9048661 18.8660168,13.6436176 C18.8116774,13.5397725 18.7930198,13.4209315 18.8129228,13.3054307 L19.195944,11.0826839 C19.2258836,10.9089381 19.1681147,10.7316143 19.0415763,10.6088463 L17.4209165,9.0364772 C17.2092942,8.83116057 17.2041824,8.49316477 17.409499,8.28154245 C17.49164,8.19687879 17.5995081,8.14180332 17.7162555,8.12491822 L19.9603647,7.80035419 C20.1340482,7.77523447 20.2842952,7.66636341 20.3622542,7.50913954 L21.3677009,5.48140434 C21.4986852,5.21724148 21.8190154,5.109279 22.0831782,5.24026338 C22.1877595,5.29211969 22.2724629,5.37682308 22.3243192,5.48140434 L23.3297658,7.50913954 C23.4077248,7.66636341 23.5579718,7.77523447 23.7316553,7.80035419 L25.9757645,8.12491822 C26.2675823,8.16712363 26.4699332,8.43790295 26.4277277,8.72972075 C26.4108426,8.84646818 26.3557672,8.95433626 26.2711035,9.0364772 L24.6504438,10.6088463 C24.5239053,10.7316143 24.4661364,10.9089381 24.4960761,11.0826839 L24.8790972,13.3054307 C24.9291682,13.5960022 24.7342039,13.8721475 24.4436324,13.9222185 C24.3281315,13.9421214 24.2092906,13.9234639 24.1054455,13.8691245 L22.0935355,12.8163446 C21.9384905,12.7352136 21.7535295,12.7352136 21.5984846,12.8163446 Z" id="星形" stroke="url(#linearGradient-3)" stroke-width="0.800820794" fill="#000000"></path>
                    <path d="M12.8011459,1.29130666 C11.4343129,6.0737732 8.7100519,7.14892897 4.62836295,4.51677396 C8.0044374,8.7310401 6.46164975,11.6536585 0,13.2846293" id="路径-7" stroke="#000000" stroke-width="2.93634291" stroke-linecap="round" stroke-linejoin="bevel"></path>
                </g>
            </g>
        </g>
    </g>
</svg>