<?xml version="1.0" encoding="UTF-8"?>
<svg width="59px" height="59px" viewBox="0 0 59 59" version="1.1" xmlns="http://www.w3.org/2000/svg" xmlns:xlink="http://www.w3.org/1999/xlink">
    <title>编组 6</title>
    <defs>
        <radialGradient cx="69.8711621%" cy="71.8590284%" fx="69.8711621%" fy="71.8590284%" r="86.5804205%" gradientTransform="translate(0.6987, 0.7186), scale(1, 0.9989), rotate(-143.8047), translate(-0.6987, -0.7186)" id="radialGradient-1">
            <stop stop-color="#46E1FF" offset="0%"></stop>
            <stop stop-color="#C0F5FF" offset="100%"></stop>
        </radialGradient>
        <linearGradient x1="0.338928125%" y1="80.7501294%" x2="78.3221962%" y2="40.8305989%" id="linearGradient-2">
            <stop stop-color="#D8F9FF" offset="0%"></stop>
            <stop stop-color="#FFFFFF" offset="100%"></stop>
        </linearGradient>
    </defs>
    <g id="设计" stroke="none" stroke-width="1" fill="none" fill-rule="evenodd">
        <g id="图标修改" transform="translate(-157, -385)">
            <g id="编组-6" transform="translate(157, 385)">
                <rect id="矩形备份-9" x="0" y="0" width="59" height="59" rx="12"></rect>
                <g id="编组-7" transform="translate(29.5, 29.5) scale(-1, 1) translate(-29.5, -29.5)translate(8, 10)">
                    <ellipse id="椭圆形" fill="url(#radialGradient-1)" cx="18.007335" cy="22.1162703" rx="16.8652303" ry="16.8837297"></ellipse>
                    <path d="M34.1263904,9.01163933 L32.1820656,9.93968138 C31.9196989,10.0649111 31.6054898,9.95373968 31.4802601,9.69137296 C31.4118064,9.54795687 31.4118064,9.38129194 31.4802601,9.23787586 L32.4083021,7.29355102 C32.4768105,7.15002025 32.4767531,6.98321025 32.4081458,6.83972672 L31.4787403,4.89599074 C31.3533298,4.63371035 31.4642848,4.31942481 31.7265652,4.19401434 C31.8701633,4.12535225 32.0371185,4.12535225 32.1807167,4.19401434 L34.1244526,5.12341989 C34.2679362,5.19202715 34.4347462,5.1920846 34.5782769,5.1235762 L36.5226018,4.19553415 C36.7849685,4.07030439 37.0991775,4.18147585 37.2244073,4.44384257 C37.292861,4.58725866 37.292861,4.75392359 37.2244073,4.89733967 L36.2963652,6.84166452 C36.2278568,6.98519528 36.2279143,7.15200528 36.2965216,7.29548882 L37.2259271,9.23922479 C37.3513376,9.50150518 37.2403826,9.81579072 36.9781022,9.9412012 C36.834504,10.0098633 36.6675489,10.0098633 36.5239507,9.9412012 L34.5802147,9.01179564 C34.4367312,8.94318839 34.2699212,8.94313093 34.1263904,9.01163933 Z" id="星形" fill="#000000" transform="translate(34.3523, 7.0676) rotate(-315) translate(-34.3523, -7.0676)"></path>
                    <path d="M39.8784484,4.05049817 L39.0882019,4.42768924 C38.8894358,4.52256192 38.6513945,4.43833965 38.5565218,4.23957354 C38.5046621,4.13092311 38.5046621,4.0046596 38.5565218,3.89600917 L38.9337129,3.10576269 C39.0022213,2.96223192 39.0021638,2.79542192 38.9335566,2.65193838 L38.5554064,1.86108434 C38.460524,1.66264967 38.5444697,1.42486921 38.7429044,1.32998683 C38.8515472,1.27803885 38.9778612,1.27803885 39.0865039,1.32998683 L39.8773579,1.70813703 C40.0208415,1.77674429 40.1876515,1.77680174 40.3311822,1.70829334 L41.1214287,1.33110227 C41.3201948,1.23622959 41.5582361,1.32045186 41.6531088,1.51921797 C41.7049685,1.62786841 41.7049685,1.75413191 41.6531088,1.86278234 L41.2759177,2.65302883 C41.2074093,2.79655959 41.2074668,2.96336959 41.276074,3.10685313 L41.6542242,3.89770717 C41.7491066,4.09614185 41.6651609,4.3339223 41.4667262,4.42880468 C41.3580835,4.48075267 41.2317695,4.48075267 41.1231267,4.42880468 L40.3322727,4.05065449 C40.1887892,3.98204723 40.0219792,3.98198977 39.8784484,4.05049817 Z" id="星形备份-2" fill="#000000" transform="translate(40.1048, 2.8794) rotate(-315) translate(-40.1048, -2.8794)"></path>
                    <path d="M3.15175745,30.1560231 C3.15175745,30.1560231 -0.633856773,32.2680696 0.0926225107,34.4993614 C1.1421047,37.6050233 41.5829872,27.7102998 38.5947157,22.1162703 C38.2714643,21.1262838 37.0307475,20.7318131 34.8725652,20.9328583" id="路径-9" stroke="#000000" stroke-width="2.89518468" stroke-linejoin="round"></path>
                    <ellipse id="椭圆形" fill="url(#linearGradient-2)" transform="translate(10.5133, 16.632) scale(-1, 1) translate(-10.5133, -16.632)" cx="10.5132616" cy="16.632043" rx="3.72445446" ry="3.73714223"></ellipse>
                    <ellipse id="椭圆形" fill="#000000" transform="translate(8.5415, 16.742) scale(-1, 1) translate(-8.5415, -16.742)" cx="8.5414916" cy="16.741959" rx="1.75268445" ry="1.86857111"></ellipse>
                    <ellipse id="椭圆形备份" fill="url(#linearGradient-2)" transform="translate(17.0858, 16.632) scale(-1, 1) translate(-17.0858, -16.632)" cx="17.0858283" cy="16.632043" rx="3.72445446" ry="3.73714223"></ellipse>
                    <ellipse id="椭圆形备份-2" fill="#000000" transform="translate(15.3331, 16.742) scale(-1, 1) translate(-15.3331, -16.742)" cx="15.3331439" cy="16.741959" rx="1.75268445" ry="1.86857111"></ellipse>
                    <path d="M14.8502428,24.6557065 C15.0517596,24.6557065 15.2443163,24.6169713 15.4210082,24.5464727 C15.9967296,24.3167644 16.4040178,23.7498315 16.4040178,23.0868479 C16.4040178,22.2203912 15.7083691,21.5179893 14.8502428,21.5179893" id="椭圆形备份-4" stroke="#000000" stroke-width="1.84139141" stroke-linecap="round" transform="translate(15.6271, 23.0868) rotate(-270) translate(-15.6271, -23.0868)"></path>
                </g>
            </g>
        </g>
    </g>
</svg>