<?xml version="1.0" encoding="UTF-8"?>
<svg width="25px" height="25px" viewBox="0 0 25 25" version="1.1" xmlns="http://www.w3.org/2000/svg" xmlns:xlink="http://www.w3.org/1999/xlink">
    <title>编组 5</title>
    <g id="设计" stroke="none" stroke-width="1" fill="none" fill-rule="evenodd">
        <g id="添加" transform="translate(-217, -208)">
            <g id="编组-5" transform="translate(217, 208)">
                <circle id="椭圆形" stroke="#000000" stroke-width="1.78571429" fill="#FFFFFF" cx="12.5" cy="12.5" r="11.6071429"></circle>
                <g id="编辑色块" transform="translate(5, 5)" fill="#000000" fill-rule="nonzero">
                    <rect id="矩形" opacity="0" x="0" y="0" width="14" height="14"></rect>
                    <path d="M10.6071875,5.369875 L8.4853125,3.0135 L2.198,8.794625 L1.6734375,11.3640625 L4.27875,11.188625 L10.6071875,5.369875 Z M12.7141875,3.143875 L10.9204375,1.0801875 L10.9165,1.0758125 C10.8347943,0.986973329 10.6965726,0.981099884 10.607625,1.0626875 L8.8143125,2.7111875 L10.93575,5.0675625 L12.697125,3.4479375 C12.7844639,3.36804545 12.7920399,3.23303678 12.7141875,3.143875 L12.7141875,3.143875 Z M1.3125,12.25 L12.6875,12.25 L12.6875,13.125 L1.3125,13.125 L1.3125,12.25 Z" id="形状"></path>
                </g>
            </g>
        </g>
    </g>
</svg>