<?xml version="1.0" encoding="UTF-8"?>
<svg width="62px" height="62px" viewBox="0 0 62 62" version="1.1" xmlns="http://www.w3.org/2000/svg" xmlns:xlink="http://www.w3.org/1999/xlink">
    <title>编组 6</title>
    <g id="设计" stroke="none" stroke-width="1" fill="none" fill-rule="evenodd">
        <g id="首页-左滑编辑" transform="translate(-221, -232)">
            <g id="编组-6" transform="translate(221, 232)">
                <rect id="矩形" fill="#FFBB2F" x="0" y="0" width="62" height="62" rx="31"></rect>
                <g id="置顶" transform="translate(20, 20)" fill-rule="nonzero">
                    <rect id="矩形" fill="#000000" opacity="0" x="0" y="0" width="22" height="22"></rect>
                    <path d="M18.854719,13.3775255 L11.8709629,4.35412618 C11.5498849,3.89099749 10.8526019,3.88036752 10.5096718,4.33262464 L3.16063665,13.356024 C2.7620828,13.8942873 3.14946224,14.6482907 3.83581916,14.6482907 L7.28895929,14.6482907 L7.28895929,18.8369841 C7.28895929,19.4723667 7.82011611,20 8.48437254,20 L13.4758561,20 C14.1286898,20 14.671021,19.4832383 14.671021,18.8369841 L14.671021,14.6482907 L18.157436,14.6482907 C18.8326185,14.6482907 19.2311724,13.9160304 18.854719,13.3775255 L18.854719,13.3775255 Z M3.93781237,4 L18.0619401,4 C18.5806087,4 19,3.55279831 19,3 C19,2.44720169 18.5806087,2 18.0619401,2 L3.93781237,2 C3.4191437,2 3,2.44720169 3,3 C3,3.55279831 3.41939128,4 3.93781237,4 Z" id="形状" fill="#FFFFFF"></path>
                </g>
            </g>
        </g>
    </g>
</svg>