<?xml version="1.0" encoding="UTF-8"?>
<svg width="62px" height="62px" viewBox="0 0 62 62" version="1.1" xmlns="http://www.w3.org/2000/svg" xmlns:xlink="http://www.w3.org/1999/xlink">
    <title>编组 6</title>
    <g id="设计" stroke="none" stroke-width="1" fill="none" fill-rule="evenodd">
        <g id="首页-左滑编辑" transform="translate(-293, -232)">
            <g id="编组-6" transform="translate(293, 232)">
                <rect id="矩形" fill="#FF2F2F" x="0" y="0" width="62" height="62" rx="31"></rect>
                <g id="删除" transform="translate(20, 20)" fill-rule="nonzero">
                    <rect id="矩形" fill="#000000" opacity="0" x="0" y="0" width="22" height="22"></rect>
                    <path d="M17.7775061,3.87343216 C18.2176039,3.87343216 18.5806846,3.94944888 18.8667482,4.10148233 C19.1528117,4.25351577 19.3801956,4.44355758 19.5488998,4.67160775 C19.7176039,4.89965792 19.8349633,5.14671228 19.900978,5.41277081 C19.9669927,5.67882934 20,5.92588369 20,6.15393387 C20,6.26035728 19.9963325,6.34397567 19.9889976,6.40478905 C19.9816626,6.46560243 19.9779951,6.51881414 19.9779951,6.56442417 L19.9779951,6.70125428 L18.5256724,6.70125428 L18.5256724,18.6738883 C18.5256724,18.9779552 18.4669927,19.2706195 18.3496333,19.5518814 C18.2322738,19.8331433 18.0635697,20.0801976 17.8435208,20.2930445 C17.6234719,20.5058913 17.3557457,20.6769289 17.0403423,20.8061574 C16.7249389,20.9353858 16.3618582,21 15.9511002,21 L6.13691932,21 C5.75550122,21 5.39608802,20.9391866 5.05867971,20.8175599 C4.72127139,20.6959331 4.43154034,20.5248955 4.18948655,20.304447 C3.94743276,20.0839985 3.75672372,19.8179399 3.61735941,19.5062714 C3.47799511,19.1946028 3.40831296,18.841125 3.40831296,18.4458381 L3.40831296,6.70125428 L2.04400978,6.70125428 C2.02933985,6.68605093 2.02200489,6.64804257 2.02200489,6.58722919 C2.00733496,6.51121247 2,6.27556062 2,5.88027366 C2,5.68263018 2.04400978,5.46218168 2.13202934,5.21892816 C2.2200489,4.97567465 2.35207824,4.75142531 2.52811736,4.54618016 C2.70415648,4.34093501 2.93154034,4.16989738 3.21026895,4.03306727 C3.48899756,3.89623717 3.8190709,3.82782212 4.200489,3.82782212 L6.15892421,3.82782212 L6.15892421,2.43671608 C6.15892421,2.04142911 6.29095355,1.70315469 6.55501222,1.42189282 C6.8190709,1.14063094 7.14180929,1 7.52322738,1 L14.4107579,1 C14.9242054,1 15.2799511,1.14063094 15.4779951,1.42189282 C15.6760391,1.70315469 15.7750611,2.04142911 15.7750611,2.43671608 L15.7750611,3.85062714 C16.0831296,3.86583048 16.4132029,3.87343216 16.7652812,3.87343216 L17.7775061,3.87343216 Z M7.52322738,3.87343216 L14.4107579,3.87343216 L14.4107579,2.43671608 L7.52322738,2.43671608 L7.52322738,3.87343216 Z M6.84107579,18.309008 C7.31051345,18.309008 7.54523227,17.9973394 7.54523227,17.3740023 L7.54523227,6.79247434 L6.1809291,6.79247434 L6.1809291,17.3740023 C6.1809291,17.6932725 6.22860636,17.9289244 6.32396088,18.0809578 C6.4193154,18.2329913 6.59168704,18.309008 6.84107579,18.309008 L6.84107579,18.309008 Z M11,18.286203 C11.2493888,18.286203 11.4180929,18.2139871 11.5061125,18.0695553 C11.594132,17.9251235 11.6381418,17.6932725 11.6381418,17.3740023 L11.6381418,6.79247434 L10.2738386,6.79247434 L10.2738386,17.3740023 C10.2738386,17.9821361 10.5158924,18.286203 11,18.286203 L11,18.286203 Z M15.1369193,18.2405929 C15.400978,18.2405929 15.5770171,18.168377 15.6650367,18.0239453 C15.7530562,17.8795135 15.797066,17.6476625 15.797066,17.3283922 L15.797066,6.79247434 L14.4107579,6.79247434 L14.4107579,17.3283922 C14.4107579,17.936526 14.6528117,18.2405929 15.1369193,18.2405929 L15.1369193,18.2405929 Z" id="形状" fill="#FFFFFF"></path>
                </g>
            </g>
        </g>
    </g>
</svg>