<?xml version="1.0" encoding="UTF-8"?>
<svg width="16px" height="16px" viewBox="0 0 16 16" version="1.1" xmlns="http://www.w3.org/2000/svg" xmlns:xlink="http://www.w3.org/1999/xlink">
    <title>247好评</title>
    <g id="设计" stroke="none" stroke-width="1" fill="none" fill-rule="evenodd">
        <g id="设置" transform="translate(-40, -245)" fill="#000000" fill-rule="nonzero">
            <g id="编组-3备份-5" transform="translate(40, 243)">
                <g id="247好评" transform="translate(0, 2)">
                    <rect id="矩形" opacity="0" x="0" y="0" width="16" height="16"></rect>
                    <path d="M5,14.7166667 L5,7.56666667 C5,7.35 5.10709133,7.15 5.27537769,7.03333333 C6.78995501,6.03333333 9.48253689,3.51666667 9.48253689,1.38333333 C9.48253689,1.28333333 9.37544557,0 10.2627737,0 C10.2627737,0 12.5269903,0.583333333 11.1195043,6.66666667 L15.0971821,6.66666667 C15.0971821,6.66666667 15.999809,6.58333333 15.999809,7.68333333 C15.999809,7.68333333 16.0457052,9.06666667 14.7147131,14.45 C14.7147131,14.45 14.3016465,16 13.7814887,16 C13.7814887,16 7.27951535,15.3333333 5.53545663,15.3333333 C5.24478017,15.3333333 5,15.05 5,14.7166667 Z M0.288176629,14.9954811 L1.78758396,14.9142721 C1.91253457,14.8817885 2,14.7518542 2,14.5894362 L2,7.39432197 C2,7.23190404 1.91253457,7.10196969 1.78758396,7.06948611 L0.288176629,7.00451894 C0.138235896,6.97203535 0.000790223893,7.11821149 0.000790223893,7.32935479 L0.000790223893,14.6706452 C-0.0117048372,14.8817885 0.125740835,15.0279647 0.288176629,14.9954811 Z" id="形状"></path>
                </g>
            </g>
        </g>
    </g>
</svg>