<?xml version="1.0" encoding="UTF-8"?>
<svg width="16px" height="16px" viewBox="0 0 16 16" version="1.1" xmlns="http://www.w3.org/2000/svg" xmlns:xlink="http://www.w3.org/1999/xlink">
    <title>协议</title>
    <g id="设计" stroke="none" stroke-width="1" fill="none" fill-rule="evenodd">
        <g id="设置" transform="translate(-40, -415)" fill="#000000" fill-rule="nonzero">
            <g id="编组-3备份-7" transform="translate(40, 413)">
                <g id="协议" transform="translate(0, 2)">
                    <rect id="矩形" opacity="0" x="0" y="0" width="16" height="16"></rect>
                    <path d="M1.4375,5.4375 C1.92815679,5.4375 2.3358643,5.81571285 2.3725,6.305 L2.375,6.375 L2.375,13.875 L9.875,13.875 C10.3656568,13.8749388 10.7733643,14.2532129 10.81,14.7425 L10.8125,14.8125 C10.8125,15.3031568 10.4342871,15.7108643 9.945,15.7475 L9.875,15.75 L2.2045,15.75 C1.33075,15.75 0.5535,15.1405 0.50275,14.2775 L0.5,14.1875 L0.5,6.375 C0.5,5.85723305 0.919733047,5.4375 1.4375,5.4375 Z M14.5625,0.75 C15.080267,0.75 15.5,1.16973305 15.5,1.6875 L15.5,11.0625 C15.5,11.580267 15.080267,12 14.5625,12 L5.1875,12 C4.66973305,12 4.25,11.580267 4.25,11.0625 L4.25,1.6875 C4.25,1.16973305 4.66973305,0.75 5.1875,0.75 L14.5625,0.75 Z M13.15625,7.78125 L6.59375,7.78125 C6.34229793,7.78163259 6.13593924,7.98035041 6.12607411,8.23160918 C6.11620898,8.48286795 6.30635199,8.69715354 6.557,8.71725 L6.59375,8.71875 L13.15625,8.71875 C13.4151335,8.71875 13.625,8.50888348 13.625,8.25 C13.625,7.99111652 13.4151335,7.78125 13.15625,7.78125 L13.15625,7.78125 Z M13.15625,4.03125 L6.59375,4.03125 C6.34229793,4.03163259 6.13593924,4.23035041 6.12607411,4.48160918 C6.11620898,4.73286795 6.30635199,4.94715354 6.557,4.96725 L6.59375,4.96875 L13.15625,4.96875 C13.4151335,4.96875 13.625,4.75888348 13.625,4.5 C13.625,4.24111652 13.4151335,4.03125 13.15625,4.03125 Z" id="形状"></path>
                </g>
            </g>
        </g>
    </g>
</svg>