<?xml version="1.0" encoding="UTF-8"?>
<svg width="16px" height="16px" viewBox="0 0 16 16" version="1.1" xmlns="http://www.w3.org/2000/svg" xmlns:xlink="http://www.w3.org/1999/xlink">
    <title>隐私</title>
    <g id="设计" stroke="none" stroke-width="1" fill="none" fill-rule="evenodd">
        <g id="设置" transform="translate(-40, -375)" fill="#000000" fill-rule="nonzero">
            <g id="编组-3备份-6" transform="translate(40, 373)">
                <g id="隐私" transform="translate(0, 2)">
                    <rect id="矩形" opacity="0" x="0" y="0" width="16" height="16"></rect>
                    <path d="M7.96853125,4.50403125 L7.80720313,4.50403125 C7.51103125,4.50403125 7.23134375,4.62054687 7.01975,4.832125 C6.80817188,5.04378125 6.69165625,5.32342187 6.69165625,5.61965625 L6.69165625,7.233125 L9.08428125,7.233125 L9.08428125,5.61965625 C9.08421875,5.00448438 8.58370313,4.50403125 7.96853125,4.50403125 L7.96853125,4.50403125 Z M7.94621875,0.4843125 C3.674625,0.4843125 0.21178125,3.94715625 0.21178125,8.21875 C0.21178125,12.4903594 3.674625,15.9531875 7.94621875,15.9531875 C12.2178281,15.9531875 15.6806563,12.4903594 15.6806563,8.21875 C15.6806563,3.94715625 12.2178281,0.4843125 7.94621875,0.4843125 Z M11.1563125,11.9540625 L4.619625,11.9540625 L4.619625,7.2331875 L5.69579688,7.2331875 L5.69579688,5.61965625 C5.69579688,5.05746875 5.91589063,4.52767187 6.31554688,4.128 C6.71523438,3.72826562 7.24501563,3.5081875 7.80720313,3.5081875 L7.96853125,3.5081875 C9.132875,3.5081875 10.0800625,4.455375 10.0800625,5.61965625 L10.0800625,7.233125 L11.1563125,7.233125 L11.1563125,11.9540625 Z" id="形状"></path>
                </g>
            </g>
        </g>
    </g>
</svg>