<?xml version="1.0" encoding="UTF-8"?>
<svg width="16px" height="16px" viewBox="0 0 16 16" version="1.1" xmlns="http://www.w3.org/2000/svg" xmlns:xlink="http://www.w3.org/1999/xlink">
    <title>分类</title>
    <g id="设计" stroke="none" stroke-width="1" fill="none" fill-rule="evenodd">
        <g id="设置" transform="translate(-40, -205)" fill="#000000" fill-rule="nonzero">
            <g id="编组-2备份-3" transform="translate(40, 203)">
                <g id="分类" transform="translate(0, 2)">
                    <rect id="矩形" opacity="0" x="0" y="0" width="16" height="16"></rect>
                    <g id="管理">
                        <rect id="矩形" opacity="0" x="0" y="0" width="16" height="16"></rect>
                        <path d="M1.66004415,2.06765636 C1.87196468,1.81065953 2.08388521,1.5711852 2.29580574,1.34923339 C2.46063282,1.15064493 2.63428992,0.963738136 2.81677704,0.78851302 C2.99926416,0.613287905 3.13760118,0.484789486 3.23178808,0.403017766 C3.36129507,0.297882697 3.49963208,0.204429302 3.64679912,0.122657581 C3.79396615,0.0408858603 3.99116998,0 4.2384106,0 L11.8675497,0 C12.0206034,0 12.1972038,0.0321246045 12.397351,0.0963738136 C12.5974982,0.160623023 12.7917586,0.292041859 12.9801325,0.490630324 C13.0743194,0.607447067 13.1979397,0.753467997 13.3509934,0.928693113 C13.5040471,1.10391823 13.6512141,1.27330251 13.7924945,1.43684595 C13.9573216,1.63543441 14.1221486,1.84570455 14.2869757,2.06765636 L1.66004415,2.06765636 Z M16,7.30688732 C16,7.6807009 15.8763797,7.99610611 15.6291391,8.25310294 C15.3818985,8.51009978 15.0286976,8.6385982 14.5695364,8.6385982 L1.5187638,8.6385982 C1.07137601,8.6385982 0.715231788,8.51009978 0.450331126,8.25310294 C0.185430464,7.99610611 0.0529801325,7.6807009 0.0529801325,7.30688732 L0.0529801325,4.80116817 C0.0529801325,4.42735459 0.17071376,4.10610854 0.406181015,3.83743003 C0.641648271,3.56875152 1.02428256,3.43441227 1.55408389,3.43441227 L14.5518764,3.43441227 C15.0934511,3.43441227 15.4701987,3.56875152 15.6821192,3.83743003 C15.8940397,4.10610854 16,4.42735459 16,4.80116817 L16,7.30688732 Z M9.34216336,6.04526649 C9.34216336,5.89340472 9.30389993,5.78534923 9.22737307,5.72110002 C9.15084621,5.65685082 9.04782929,5.62472621 8.9183223,5.62472621 L7.13465784,5.62472621 C7.00515085,5.62472621 6.89919058,5.66561207 6.81677704,5.74738379 C6.7343635,5.82915551 6.69315673,5.92844974 6.69315673,6.04526649 C6.7049301,6.19712826 6.74908021,6.30810416 6.82560706,6.37819421 C6.90213392,6.44828425 7.00515085,6.48332928 7.13465784,6.48332928 L8.9183223,6.48332928 C9.18910964,6.48332928 9.33038999,6.33730835 9.34216336,6.04526649 L9.34216336,6.04526649 Z M15.9470199,13.6500365 C15.9470199,14.0238501 15.8027962,14.3450961 15.5143488,14.6137746 C15.2259014,14.8824532 14.8579838,15.0109516 14.410596,14.9992699 L1.46578366,14.9992699 C1.08903606,14.9992699 0.750551876,14.8678511 0.450331126,14.6050134 C0.150110375,14.3421757 0,13.9771234 0,13.5098564 L0,11.1618399 C0,10.7763446 0.120676968,10.4521781 0.362030905,10.1893405 C0.603384842,9.9265028 0.988962472,9.79508396 1.5187638,9.79508396 L14.4812362,9.79508396 C14.9757174,9.79508396 15.343635,9.9265028 15.584989,10.1893405 C15.8263429,10.4521781 15.9470199,10.7705038 15.9470199,11.1443174 L15.9470199,13.6500365 Z M9.28918322,12.4059382 C9.28918322,12.2891214 9.25091979,12.1898272 9.17439294,12.1080555 C9.09786608,12.0262838 8.99484915,11.9853979 8.86534216,11.9853979 L7.0816777,11.9853979 C6.95217071,11.9853979 6.84621045,12.0262838 6.76379691,12.1080555 C6.68138337,12.1898272 6.6401766,12.2891214 6.6401766,12.4059382 C6.6401766,12.5227549 6.68138337,12.6220492 6.76379691,12.7038209 C6.84621045,12.7855926 6.95217071,12.8264785 7.0816777,12.8264785 L8.86534216,12.8264785 C8.99484915,12.8264785 9.09786608,12.7855926 9.17439294,12.7038209 C9.25091979,12.6220492 9.28918322,12.5227549 9.28918322,12.4059382 Z" id="形状"></path>
                    </g>
                </g>
            </g>
        </g>
    </g>
</svg>